<?xml version="1.0" encoding="UTF-8" standalone="no"?>
<!DOCTYPE svg PUBLIC "-//W3C//DTD SVG 1.1//EN" "http://www.w3.org/Graphics/SVG/1.1/DTD/svg11.dtd">
<svg xmlns="http://www.w3.org/2000/svg" xmlns:xl="http://www.w3.org/1999/xlink" version="1.1" viewBox="0 0 1024 1024" width="1024pt" height="1024pt" xmlns:dc="http://purl.org/dc/elements/1.1/">
  <g stroke="none" stroke-opacity="1" stroke-dasharray="none" fill="none" fill-opacity="1">
    <path d="M 777.1929 854.2517 C 749.482 910.0432 709.30495 953.9549 655.3872 985.8594 C 518.974 1066.5959 331.82967 1014.2969 258.02735 874.7863 C 209.08074 782.2721 207.55115 689.1588 253.1072 595.4847 C 329.54804 438.3074 406.6517 281.46155 483.52594 124.50098 C 503.7164 83.27875 524.1236 42.17124 544.4033 1 C 554.6515 30.316983 563.9437 59.99087 575.0459 88.98919 C 580.20825 102.44951 579.08655 113.38602 572.67506 126.37472 C 489.50405 294.94737 406.7919 463.7367 324.271 632.628 C 274.1007 735.31394 309.1791 855.7558 405.26234 912.5925 C 502.0976 969.8626 622.08055 944.6245 686.3612 848.9746 C 714.0976 807.7141 732.7458 760.33535 755.4983 715.72255 C 761.9353 703.1035 768.3086 690.459 777.4988 672.3079 C 785.6311 697.2274 790.7297 716.7295 798.3011 735.2247 C 808.1159 766.6321 807.3511 791.7173 777.1929 854.2517 Z" fill="#cd585d"/>
    <path d="M 417.731 822.8098 C 428.32333 801.7144 439.31083 780.2492 449.9287 758.5929 C 516.32527 623.0847 582.4797 487.4618 649.2332 352.1193 C 655.5809 339.24533 656.43495 328.23234 651.3873 314.7338 C 640.4381 285.40405 631.2096 255.437 619.2789 219.72126 C 608.1002 241.78548 599.4835 258.3177 591.2875 275.05388 C 525.439 409.3639 459.4376 543.59745 394.02246 678.1114 C 371.19346 725.0568 371.69057 770.9953 404.7423 813.9255 C 406.73074 816.5131 409.13983 818.8202 411.5744 821.0126 C 412.4157 821.7646 413.9325 821.7519 417.731 822.8098 Z" fill="#cd585d"/>
    <path d="M 697.675 440.19517 C 629.239 579.897 560.7902 719.6115 492.3032 859.4153 C 521.9006 871.6647 569.6873 858.4465 594.0331 827.5617 C 612.54106 804.0699 627.2888 777.1875 640.953 750.4071 C 671.4937 690.5495 700.4538 629.8888 729.57955 569.31736 C 732.4603 563.3265 734.487 554.9903 732.70245 548.9994 C 721.7914 512.50615 709.4146 476.44626 697.675 440.19517 Z" fill="#cd585d"/>
  </g>
</svg>
